<svg width="21" height="18" viewBox="0 0 21 18" fill="none" xmlns="http://www.w3.org/2000/svg">
<path d="M18.5898 1.69272H17.8207V1.27215C17.8207 0.856244 17.5988 0.47191 17.2384 0.263873C16.8782 0.055841 16.4345 0.055841 16.0743 0.263873C15.7139 0.471906 15.4921 0.856244 15.4921 1.27215V1.69272H12.7328C12.5355 1.69529 12.3769 1.85599 12.3769 2.05339C12.3769 2.25064 12.5355 2.41133 12.7328 2.41407H15.4921V3.83277C15.4921 3.92841 15.5301 4.02019 15.5977 4.08782C15.6653 4.1556 15.7571 4.19344 15.8527 4.19344H16.6565C16.8536 4.19055 17.0119 4.02985 17.0119 3.83277C17.0119 3.63569 16.8536 3.47499 16.6565 3.4721H16.2134V2.41407C16.2181 2.41632 18.5898 2.41407 18.5898 2.41407C18.9279 2.41487 19.2518 2.5498 19.4906 2.78923C19.7292 3.0285 19.8631 3.35279 19.8631 3.69092V5.16597H16.5738C16.3746 5.16597 16.2131 5.32747 16.2131 5.52664C16.2131 5.72582 16.3746 5.88732 16.5738 5.88732H19.8631V15.8815C19.8627 16.2191 19.7284 16.5428 19.4898 16.7814C19.2511 17.02 18.9275 17.1543 18.5898 17.1548H2.38137C2.04372 17.1543 1.72008 17.02 1.48146 16.7814C1.24283 16.5428 1.10854 16.2191 1.10806 15.8815V5.88732H15.1311C15.3281 5.88442 15.4864 5.72372 15.4864 5.52664C15.4864 5.3294 15.3281 5.16887 15.1311 5.16597H1.10806V3.69092C1.10806 3.35279 1.24203 3.02851 1.48065 2.78923C1.71944 2.5498 2.04322 2.41487 2.38139 2.41407H3.15071V3.83277H3.15055C3.15055 3.92841 3.18855 4.02019 3.25618 4.08782C3.32381 4.1556 3.41559 4.1936 3.51123 4.19344H4.31469C4.51193 4.19087 4.67053 4.03018 4.67053 3.83277C4.67053 3.63552 4.51193 3.47483 4.31469 3.4721H3.8719V2.41407C4.67812 2.41487 8.43535 2.41342 9.32158 2.41407V3.83277C9.32158 3.92841 9.35958 4.02019 9.42721 4.08782C9.49483 4.1556 9.58661 4.19344 9.68225 4.19344H10.4857C10.683 4.19071 10.8414 4.03002 10.8414 3.83277C10.8414 3.63552 10.683 3.47483 10.4857 3.4721H10.0429V2.41407H11.2839C11.3814 2.41584 11.4756 2.37784 11.5447 2.30892C11.6136 2.23985 11.6516 2.14565 11.6498 2.04808V1.27216C11.6461 0.858845 11.4235 0.478345 11.0647 0.27274C10.7061 0.067123 10.2653 0.067123 9.90669 0.27274C9.54795 0.478357 9.32528 0.858845 9.32158 1.27216V1.69272H5.47927V1.27216C5.4754 0.858845 5.25256 0.478674 4.89399 0.27307C4.53541 0.0676133 4.09453 0.0676133 3.73595 0.27307C3.37737 0.478687 3.15467 0.858845 3.15067 1.27216V1.69272H2.38151C1.85225 1.69385 1.34491 1.90478 0.971009 2.27928C0.596972 2.65396 0.387006 3.16147 0.386841 3.6909V15.8817C0.387324 16.4106 0.597771 16.9175 0.971668 17.2915C1.34554 17.6654 1.85258 17.8758 2.38151 17.8763H18.59C19.1189 17.8759 19.626 17.6654 19.9998 17.2915C20.3737 16.9175 20.5842 16.4106 20.5847 15.8817V3.6909C20.5845 3.16147 20.3745 2.65397 20.0005 2.27928C19.6266 1.90476 19.1192 1.69367 18.59 1.69272L18.5898 1.69272ZM17.0991 1.69272H16.2134V1.27215C16.2134 1.02757 16.4118 0.829204 16.6564 0.829204C16.9009 0.829204 17.0993 1.02757 17.0993 1.27215L17.0991 1.69272ZM10.0427 1.27215C10.0463 1.03015 10.2435 0.835799 10.4855 0.835799C10.7275 0.835799 10.9247 1.03014 10.9283 1.27215V1.69272H10.0427V1.27215ZM3.87169 1.27215C3.8754 1.03015 4.07264 0.835799 4.31464 0.835799C4.55681 0.835799 4.75404 1.03014 4.75759 1.27215V1.69272H3.87169V1.27215Z" fill="#917B4C"/>
<path d="M12.8829 6.76013C12.4124 6.76416 11.9793 7.0176 11.7452 7.42575C11.5111 7.83408 11.5111 8.3358 11.7452 8.74413C11.9793 9.1523 12.4124 9.40575 12.8829 9.40974C13.3536 9.40572 13.7867 9.15228 14.0208 8.74396C14.2549 8.33579 14.2549 7.83407 14.0208 7.42575C13.7867 7.01758 13.3535 6.76413 12.8829 6.76013ZM12.8829 8.68844C12.6694 8.68538 12.4733 8.56977 12.3673 8.38428C12.2616 8.19879 12.2616 7.97114 12.3675 7.78565C12.4733 7.60016 12.6694 7.48455 12.8829 7.48149C13.0966 7.48455 13.2927 7.60016 13.3985 7.78565C13.5044 7.97114 13.5044 8.19879 13.3985 8.38428C13.2925 8.56977 13.0966 8.68538 12.8829 8.68844Z" fill="#917B4C"/>
<path d="M17.6784 9.40979C18.1489 9.4056 18.5819 9.15216 18.8158 8.744C19.0498 8.33583 19.0498 7.83412 18.8158 7.42591C18.5819 7.01774 18.1489 6.7643 17.6784 6.76013C17.2079 6.76432 16.775 7.01776 16.541 7.42591C16.3069 7.83409 16.3069 8.3358 16.541 8.744C16.775 9.15217 17.2079 9.40562 17.6784 9.40979ZM17.6784 7.48148C17.8919 7.48453 18.0879 7.6003 18.1937 7.78579C18.2995 7.97112 18.2995 8.19882 18.1937 8.38414C18.0877 8.56963 17.8919 8.68524 17.6784 8.68846C17.4649 8.68524 17.269 8.56963 17.1632 8.38414C17.0574 8.19865 17.0574 7.97112 17.1632 7.78579C17.269 7.6003 17.4649 7.48453 17.6784 7.48148Z" fill="#917B4C"/>
<path d="M3.29276 10.1964C2.82228 10.2008 2.38947 10.4542 2.15551 10.8624C1.92155 11.2704 1.92155 11.7721 2.15551 12.1803C2.38946 12.5883 2.82245 12.8417 3.29276 12.8461C3.76325 12.8417 4.19606 12.5883 4.43002 12.1801C4.66414 11.7721 4.66398 11.2704 4.43002 10.8622C4.19606 10.4542 3.76325 10.2006 3.29276 10.1964ZM3.29276 12.1247C3.07926 12.1215 2.8833 12.0059 2.77752 11.8204C2.67173 11.6349 2.67173 11.4074 2.77752 11.2221C2.88346 11.0366 3.07926 10.9208 3.29276 10.9177C3.50627 10.9208 3.70223 11.0366 3.80801 11.2221C3.9138 11.4074 3.9138 11.6351 3.80801 11.8204C3.70223 12.0059 3.50627 12.1217 3.29276 12.1247Z" fill="#917B4C"/>
<path d="M8.08823 10.1964C7.61775 10.2008 7.18494 10.4542 6.95098 10.8624C6.71686 11.2704 6.71686 11.7721 6.95098 12.1803C7.18493 12.5883 7.61775 12.8417 8.08823 12.8461C8.55872 12.8417 8.99153 12.5883 9.22549 12.1801C9.45944 11.7721 9.45944 11.2704 9.22549 10.8622C8.99153 10.4542 8.55855 10.2006 8.08823 10.1964ZM8.08823 12.1247C7.87473 12.1215 7.67877 12.0059 7.57299 11.8204C7.46704 11.6349 7.4672 11.4074 7.57299 11.2221C7.67877 11.0366 7.87473 10.9208 8.08823 10.9177C8.30174 10.9208 8.49753 11.0366 8.60348 11.2221C8.70927 11.4074 8.70927 11.6351 8.60348 11.8204C8.49753 12.0059 8.30174 12.1217 8.08823 12.1247Z" fill="#917B4C"/>
<path d="M13.8743 10.6423C13.7407 10.4983 13.5162 10.4879 13.3699 10.6188C13.2233 10.7497 13.2087 10.9738 13.3369 11.1228C13.4393 11.2392 13.4927 11.3907 13.4863 11.5456C13.4798 11.7005 13.414 11.847 13.3022 11.9546C13.1907 12.0621 13.0417 12.1225 12.8867 12.123C12.7316 12.1236 12.5823 12.0644 12.4698 11.9578C12.3573 11.851 12.2903 11.7052 12.2825 11.5503C12.275 11.3954 12.3273 11.2435 12.4289 11.1263C12.5634 10.9795 12.5534 10.7513 12.4067 10.6167C11.8908 10.2445 11.543 11.1001 11.5569 11.5208H11.5567C11.5572 11.9559 11.7712 12.3631 12.1293 12.6103C12.4875 12.8573 12.9442 12.9127 13.3511 12.7586C13.758 12.6043 14.0632 12.2601 14.1677 11.8377C14.2721 11.4152 14.1624 10.9684 13.8744 10.6423L13.8743 10.6423Z" fill="#917B4C"/>
<path d="M17.6784 12.8461C18.1489 12.8419 18.5819 12.5884 18.8158 12.1803C19.0498 11.7721 19.0498 11.2704 18.8158 10.8622C18.5819 10.454 18.1489 10.2006 17.6784 10.1964C17.2079 10.2006 16.775 10.454 16.541 10.8622C16.3069 11.2704 16.3069 11.7721 16.541 12.1803C16.775 12.5885 17.2079 12.8419 17.6784 12.8461ZM17.6784 10.9178C17.8919 10.9208 18.0879 11.0366 18.1937 11.2221C18.2996 11.4074 18.2996 11.6351 18.1937 11.8204C18.0879 12.0059 17.8919 12.1217 17.6784 12.1247C17.4649 12.1217 17.269 12.0059 17.163 11.8204C17.0572 11.6351 17.0572 11.4074 17.163 11.2219C17.269 11.0366 17.4649 10.9208 17.6784 10.9178Z" fill="#917B4C"/>
<path d="M3.29352 14.3525C3.44294 14.3533 3.58673 14.4087 3.69799 14.5082C3.84822 14.6349 4.07219 14.6182 4.20182 14.4703C4.33144 14.3225 4.31872 14.0981 4.17348 13.9657C3.84759 13.6759 3.40012 13.5648 2.97666 13.6687C2.55321 13.7723 2.20767 14.0778 2.05293 14.4855C1.89803 14.8932 1.95358 15.3508 2.20139 15.7097C2.44919 16.0684 2.85752 16.2824 3.29355 16.2819C3.71106 16.2954 4.56588 15.9562 4.20088 15.4393L4.20104 15.4395C4.13744 15.3678 4.04792 15.3247 3.95243 15.3192C3.85679 15.3139 3.76308 15.3469 3.69191 15.411C3.5821 15.5081 3.44024 15.5614 3.29356 15.5606C3.07957 15.5578 2.88313 15.4422 2.77687 15.2564C2.6706 15.0706 2.6706 14.8425 2.77687 14.6568C2.88314 14.471 3.07954 14.3552 3.29352 14.3525Z" fill="#917B4C"/>
<path d="M8.08821 13.632C7.61739 13.6359 7.18425 13.8893 6.95 14.2976C6.71588 14.706 6.71588 15.2079 6.95 15.616C7.18428 16.0243 7.61756 16.2778 8.08821 16.2816C8.55885 16.2778 8.99216 16.0243 9.22624 15.616C9.46052 15.2078 9.46052 14.7058 9.22624 14.2976C8.99213 13.8893 8.55885 13.6359 8.08821 13.632ZM8.08821 15.5603C7.8747 15.5573 7.67874 15.4415 7.57279 15.256C7.46701 15.0707 7.46701 14.843 7.57279 14.6577C7.67874 14.4722 7.87469 14.3564 8.08821 14.3533C8.30187 14.3562 8.49799 14.472 8.60395 14.6575C8.7099 14.843 8.7099 15.0706 8.60395 15.2561C8.498 15.4418 8.30189 15.5574 8.08821 15.5603Z" fill="#917B4C"/>
<path d="M12.8829 13.632C12.4121 13.6357 11.9788 13.8892 11.7445 14.2975C11.5103 14.7059 11.5103 15.2079 11.7445 15.6162C11.9788 16.0245 12.4123 16.278 12.8829 16.2817C13.3537 16.278 13.7872 16.0246 14.0214 15.6162C14.2557 15.2079 14.2557 14.7058 14.0214 14.2975C13.7872 13.8892 13.3537 13.6357 12.8829 13.632ZM12.8829 15.5603C12.6694 15.5573 12.4733 15.4417 12.3673 15.2562C12.2616 15.0707 12.2616 14.843 12.3675 14.6575C12.4733 14.472 12.6694 14.3564 12.8829 14.3534C13.0967 14.3563 13.293 14.4719 13.399 14.6574C13.5051 14.843 13.5049 15.0709 13.399 15.2563C13.2929 15.4418 13.0968 15.5576 12.8829 15.5603Z" fill="#917B4C"/>
<path d="M17.6784 16.282C18.1489 16.2778 18.5819 16.0244 18.8158 15.6162C19.0498 15.208 19.0498 14.7063 18.8158 14.2981C18.5819 13.8899 18.1489 13.6365 17.6784 13.6323C17.2079 13.6365 16.775 13.8899 16.541 14.2981C16.3069 14.7063 16.3069 15.208 16.541 15.6162C16.775 16.0244 17.2079 16.2778 17.6784 16.282ZM17.6784 14.3537C17.8919 14.3567 18.0879 14.4725 18.1937 14.658C18.2996 14.8433 18.2996 15.071 18.1937 15.2565C18.0879 15.4418 17.8919 15.5576 17.6784 15.5607C17.4648 15.5578 17.2686 15.4421 17.1627 15.2565C17.0566 15.071 17.0566 14.8434 17.1627 14.6579C17.2686 14.4722 17.4647 14.3566 17.6784 14.3537Z" fill="#917B4C"/>
</svg>
