<svg width="18" height="18" viewBox="0 0 18 18" fill="none" xmlns="http://www.w3.org/2000/svg">
<path d="M12.4661 1.79688H5.82548C4.79845 1.79797 3.8138 2.20645 3.08758 2.93267C2.36135 3.65889 1.95288 4.64354 1.95178 5.67057V12.3112C1.95288 13.3382 2.36135 14.3229 3.08758 15.0491C3.8138 15.7753 4.79845 16.1838 5.82548 16.1849H12.4661C13.4931 16.1838 14.4778 15.7753 15.204 15.0491C15.9302 14.3229 16.3387 13.3382 16.3398 12.3112V5.67057C16.3387 4.64354 15.9302 3.65889 15.204 2.93267C14.4778 2.20645 13.4931 1.79797 12.4661 1.79688ZM9.14579 12.3112C8.4891 12.3112 7.84715 12.1165 7.30113 11.7516C6.7551 11.3868 6.32953 10.8682 6.07822 10.2615C5.82692 9.65481 5.76116 8.9872 5.88928 8.34312C6.01739 7.69905 6.33362 7.10742 6.79798 6.64307C7.26233 6.17872 7.85395 5.86249 8.49803 5.73437C9.14211 5.60626 9.80971 5.67201 10.4164 5.92332C11.0231 6.17462 11.5417 6.6002 11.9065 7.14622C12.2714 7.69224 12.4661 8.33419 12.4661 8.99088C12.4652 9.87121 12.1151 10.7152 11.4926 11.3377C10.8701 11.9602 10.0261 12.3103 9.14579 12.3112ZM13.2962 5.67057C13.132 5.67057 12.9715 5.62189 12.835 5.53068C12.6985 5.43947 12.5921 5.30983 12.5293 5.15815C12.4665 5.00647 12.45 4.83957 12.4821 4.67855C12.5141 4.51753 12.5931 4.36963 12.7092 4.25354C12.8253 4.13745 12.9732 4.05839 13.1342 4.02637C13.2953 3.99434 13.4622 4.01078 13.6138 4.0736C13.7655 4.13643 13.8952 4.24282 13.9864 4.37933C14.0776 4.51583 14.1263 4.67632 14.1263 4.84049C14.1263 5.06064 14.0388 5.27178 13.8831 5.42745C13.7275 5.58312 13.5163 5.67057 13.2962 5.67057ZM11.3593 8.99088C11.3593 9.42868 11.2295 9.85665 10.9863 10.2207C10.7431 10.5847 10.3973 10.8684 9.99288 11.0359C9.58841 11.2035 9.14334 11.2473 8.71395 11.1619C8.28457 11.0765 7.89015 10.8657 7.58058 10.5561C7.27101 10.2465 7.06019 9.85211 6.97478 9.42273C6.88937 8.99334 6.93321 8.54827 7.10075 8.1438C7.26828 7.73933 7.552 7.39362 7.91601 7.15039C8.28003 6.90717 8.70799 6.77734 9.14579 6.77734C9.73286 6.77734 10.2959 7.01056 10.711 7.42567C11.1261 7.84079 11.3593 8.40382 11.3593 8.99088Z" fill="#917B4C"/>
</svg>
