<svg width="162" height="162" viewBox="0 0 162 162" fill="none" xmlns="http://www.w3.org/2000/svg">
<path d="M146.61 100.555L144.698 95.2978L144.658 95.3154C144.313 95.4409 143.947 95.4972 143.581 95.481C143.214 95.4648 142.855 95.3766 142.522 95.2212C142.19 95.0659 141.892 94.8466 141.644 94.5758C141.397 94.3049 141.205 93.988 141.08 93.643C140.954 93.2949 140.898 92.925 140.916 92.555C140.933 92.1851 141.024 91.8223 141.183 91.4878C141.342 91.1533 141.566 90.8537 141.842 90.6064C142.118 90.3591 142.44 90.1691 142.79 90.0474L140.88 84.7947C140.867 84.7969 140.854 84.8057 140.84 84.8101C140.143 85.0637 139.374 85.03 138.702 84.7166C138.03 84.4032 137.51 83.8356 137.257 83.1388C137.003 82.4419 137.037 81.6729 137.35 81.0008C137.664 80.3288 138.231 79.8088 138.928 79.5552L138.97 79.5442L137.06 74.2871C136.714 74.4177 136.346 74.4786 135.976 74.4662C135.607 74.4539 135.244 74.3685 134.907 74.2151C134.571 74.0617 134.269 73.8433 134.017 73.5724C133.766 73.3015 133.57 72.9835 133.442 72.6367C132.914 71.1866 133.662 69.5802 135.11 69.052C135.121 69.0454 135.139 69.0432 135.152 69.0388L133.242 63.784C133.227 63.7862 133.211 63.7928 133.198 63.7972C132.526 64.0432 131.784 64.0209 131.128 63.7349C130.471 63.4489 129.95 62.9212 129.673 62.2612C127.925 62.4644 126.153 62.29 124.478 61.7498C122.804 61.2096 121.264 60.3161 119.964 59.1298C119.951 56.4251 120.827 53.791 122.457 51.6326C122.035 51.0673 121.843 50.3632 121.919 49.6619C121.995 48.9606 122.334 48.314 122.867 47.8521L119.271 43.5698C119.26 43.5764 119.253 43.5874 119.24 43.6006C118.959 43.8367 118.635 44.015 118.285 44.1253C117.935 44.2357 117.567 44.2758 117.202 44.2435C116.836 44.2112 116.481 44.1071 116.156 43.9371C115.831 43.7671 115.543 43.5346 115.308 43.253C114.831 42.6853 114.6 41.9517 114.664 41.2135C114.729 40.4752 115.084 39.7928 115.651 39.3162C115.662 39.3096 115.673 39.2986 115.684 39.2876L112.093 35.0075L112.062 35.0339C111.782 35.2773 111.456 35.4625 111.104 35.5787C110.752 35.6949 110.38 35.7398 110.01 35.7107C109.64 35.6817 109.28 35.5792 108.95 35.4094C108.62 35.2396 108.327 35.0058 108.089 34.7216C107.85 34.4375 107.67 34.1087 107.56 33.7544C107.45 33.4001 107.412 33.0274 107.447 32.6581C107.482 32.2887 107.591 31.9302 107.766 31.6032C107.942 31.2763 108.181 30.9876 108.469 30.7539L108.504 30.7275L104.913 26.4453C104.633 26.6878 104.308 26.8724 103.957 26.9881C103.606 27.1039 103.235 27.1485 102.866 27.1194C102.497 27.0904 102.137 26.9881 101.808 26.8187C101.48 26.6493 101.188 26.4162 100.95 26.1328C100.713 25.8518 100.535 25.527 100.424 25.1769C100.313 24.8269 100.272 24.4584 100.304 24.0926C100.336 23.7268 100.439 23.3708 100.608 23.045C100.778 22.7192 101.01 22.43 101.291 22.1938C101.302 22.1828 101.315 22.1762 101.326 22.1696L97.7325 17.883L97.6973 17.9116C97.1491 18.3719 96.4449 18.6037 95.7305 18.5591C95.0161 18.5144 94.3462 18.1967 93.8596 17.6717C92.1371 18.5427 90.2336 18.9958 88.3034 18.9942C86.4987 18.9969 84.7156 18.6029 83.0801 17.8401C81.4446 17.0773 79.9967 15.9643 78.839 14.58L16.1028 67.2586C18.2087 69.7705 19.2313 73.0158 18.9457 76.2813C18.6602 79.5468 17.09 82.5653 14.58 84.6737L37.2078 111.661L47.2354 139.223C50.314 138.103 53.7111 138.253 56.6794 139.638C59.6477 141.024 61.9442 143.531 63.0636 146.61L140.024 118.58C139.067 115.948 139.031 113.069 139.924 110.414C140.816 107.76 142.583 105.487 144.935 103.968C144.733 103.293 144.792 102.566 145.103 101.933C145.414 101.3 145.952 100.808 146.61 100.555ZM120.373 70.9819L132.135 103.319C132.445 104.175 132.403 105.12 132.017 105.945C131.632 106.771 130.935 107.409 130.08 107.722L63.6996 131.897C62.8448 132.206 61.9023 132.164 61.0787 131.78C60.255 131.395 59.6173 130.7 59.3052 129.846L54.2154 115.855C56.5127 116.544 58.5577 117.891 60.0974 119.73L80.3178 102.751L83.2136 101.695C83.7847 101.481 84.2685 101.084 84.5892 100.565C84.9098 100.047 85.049 99.4361 84.985 98.8297L86.4682 97.5864L87.3043 99.8838C87.3173 99.922 87.3379 99.9572 87.3649 99.9873C87.3919 100.017 87.4246 100.042 87.4612 100.059C87.4978 100.076 87.5375 100.085 87.5778 100.087C87.6182 100.088 87.6584 100.081 87.696 100.066L89.6457 99.3534C89.6839 99.3404 89.7191 99.3198 89.7492 99.2929C89.7792 99.2659 89.8035 99.2332 89.8206 99.1966C89.8376 99.16 89.8471 99.1203 89.8485 99.0799C89.8498 99.0396 89.8429 98.9994 89.8283 98.9617L88.6599 95.749L89.1396 95.3419L90.9638 97.9033C91.0562 98.0287 91.1816 97.9847 91.1728 97.8285L90.8604 93.9005L91.1662 93.643L92.7198 97.9077C92.7333 97.9455 92.7542 97.9804 92.7812 98.0101C92.8083 98.0398 92.841 98.0639 92.8774 98.0809C92.9139 98.0978 92.9533 98.1074 92.9935 98.1091C93.0337 98.1107 93.1115 98.0903 93.1115 98.0903L95.0611 97.3773C95.0996 97.3653 95.1351 97.3455 95.1656 97.3191C95.196 97.2928 95.2207 97.2604 95.238 97.224C95.2554 97.1877 95.265 97.1481 95.2664 97.1079C95.2678 97.0676 95.2608 97.0275 95.2459 96.9901L93.3579 91.8034L94.9489 90.4721L97.079 96.3255C97.0922 96.3635 97.113 96.3985 97.14 96.4284C97.167 96.4583 97.1997 96.4825 97.2362 96.4995C97.2728 96.5165 97.3123 96.5261 97.3526 96.5276C97.3928 96.529 97.433 96.5224 97.4706 96.5081L99.2773 95.8458C99.3156 95.8325 99.3509 95.8117 99.381 95.7846C99.4112 95.7574 99.4356 95.7245 99.4528 95.6878C99.47 95.6511 99.4797 95.6113 99.4813 95.5708C99.4829 95.5303 99.4764 95.4898 99.4621 95.4519L97.0195 88.7314L99.7328 86.4495L102.596 94.312C102.624 94.3869 102.681 94.4477 102.754 94.4818C102.826 94.5158 102.909 94.5205 102.985 94.4947L104.794 93.8367C104.832 93.8234 104.867 93.8027 104.897 93.7757C104.927 93.7486 104.951 93.7159 104.968 93.6794C104.985 93.6429 104.995 93.6033 104.996 93.5631C104.997 93.5228 104.991 93.4827 104.977 93.445L101.801 84.7133L119.583 69.7826C119.911 70.1193 120.2 70.5066 120.373 70.9819ZM21.5138 68.1014L78.7312 20.0549C80.8471 21.5678 83.2918 22.5569 85.8644 22.941C88.437 23.325 91.064 23.0931 93.5296 22.2642C94.4356 22.5991 95.4022 22.7386 96.366 22.6735L96.3726 22.6801C95.8665 24.7486 96.3154 27.0284 97.7875 28.7778C98.4852 29.6131 99.3707 30.2713 100.372 30.6985C101.373 31.1258 102.46 31.3099 103.546 31.2358L103.553 31.2424C103.291 32.2988 103.282 33.4022 103.527 34.4627C103.772 35.5232 104.264 36.5107 104.964 37.3447C105.663 38.1788 106.55 38.8358 107.551 39.2621C108.553 39.6885 109.641 39.8721 110.726 39.7981L110.733 39.8047C110.471 40.861 110.463 41.9643 110.708 43.0245C110.954 44.0848 111.446 45.0721 112.145 45.906C112.844 46.74 113.731 47.3969 114.732 47.8234C115.733 48.25 116.821 48.4339 117.907 48.3604L117.96 48.422C117.759 49.3046 117.731 50.2179 117.878 51.1111C116.594 53.4046 115.881 55.9742 115.802 58.6018C115.722 61.2293 116.277 63.8374 117.42 66.2045L60.2074 114.244C57.4136 112.248 54.0648 111.176 50.6308 111.179C48.1782 111.181 45.7569 111.73 43.543 112.786L20.0549 84.7815C21.7579 82.3815 22.7907 79.571 23.0472 76.6394C23.3036 73.7077 22.7743 70.7606 21.5138 68.1014ZM140.81 101.913C138.818 103.628 137.27 105.799 136.296 108.24C135.322 110.681 134.952 113.322 135.216 115.937L65.0353 141.503C63.3671 139.081 61.0832 137.149 58.4193 135.905C55.7554 134.66 52.8078 134.149 49.8804 134.423L43.719 117.492C45.6809 116.142 47.9942 115.392 50.3756 115.336L56.0792 131.024C56.7038 132.733 57.9808 134.124 59.63 134.893C61.2793 135.662 63.1662 135.746 64.8769 135.125L131.253 110.948C132.962 110.323 134.354 109.046 135.123 107.396C135.892 105.746 135.975 103.859 135.354 102.148L123.593 69.8112C123.283 68.9824 122.811 68.2237 122.204 67.5799L122.834 67.0518C122.297 66.4007 121.829 65.6966 121.436 64.9502C123.408 65.8525 125.542 66.4158 127.783 66.473C128.518 67.0936 129.378 67.5579 130.313 67.8263C130.115 68.1246 129.94 68.4394 129.789 68.7638C129.404 69.5863 129.185 70.4771 129.145 71.3848C129.106 72.2925 129.247 73.1989 129.561 74.0517C129.935 75.0721 130.543 75.9904 131.337 76.7327C132.131 77.4749 133.088 78.0204 134.131 78.3251L134.135 78.3405C133.531 79.245 133.148 80.2787 133.016 81.3584C132.884 82.4381 133.007 83.5337 133.376 84.557C133.752 85.5766 134.362 86.4941 135.156 87.2361C135.95 87.9781 136.906 88.5242 137.949 88.8305L137.953 88.8415C137.349 89.7464 136.966 90.7807 136.835 91.8609C136.704 92.9411 136.828 94.037 137.198 95.0602C137.574 96.0798 138.183 96.9974 138.976 97.7395C139.77 98.4815 140.726 99.0275 141.769 99.3336L141.798 99.4106C141.312 100.174 140.977 101.023 140.81 101.913Z" fill="white"/>
<path d="M47.9994 106.891C49.1703 108.289 50.8459 109.164 52.6585 109.324C54.4711 109.483 56.2727 108.914 57.668 107.741L111.763 62.127C113.155 60.9498 114.025 59.2671 114.184 57.4471C114.343 55.6272 113.777 53.8182 112.61 52.4161L90.5102 25.9497C89.3404 24.551 87.6655 23.6758 85.8534 23.5163C84.0414 23.3568 82.2404 23.9262 80.8461 25.0993L26.7462 70.7135C25.3547 71.8906 24.4845 73.5736 24.3261 75.3937C24.1678 77.2138 24.7342 79.0228 25.9014 80.4243L47.9994 106.891ZM28.9527 73.3555L83.0504 27.739C83.7479 27.1532 84.6483 26.8688 85.5542 26.9483C86.4602 27.0278 87.2978 27.4647 87.8835 28.1632L109.982 54.6251C111.198 56.0831 111.007 58.2612 109.559 59.4828L55.4593 105.099C54.7625 105.685 53.8628 105.969 52.9576 105.89C52.0523 105.81 51.2155 105.373 50.6305 104.675L28.5303 78.2087C27.9468 77.5083 27.6637 76.6041 27.7428 75.6944C27.822 74.7847 28.2571 73.9436 28.9527 73.3555Z" fill="white"/>
</svg>
