<svg width="21" height="20" viewBox="0 0 21 20" fill="none" xmlns="http://www.w3.org/2000/svg">
<path d="M18.492 6.29892C18.421 7.85492 17.334 9.98592 15.23 12.6919C13.055 15.5209 11.214 16.9349 9.708 16.9349C8.775 16.9349 7.986 16.0739 7.341 14.3519L6.05 9.61792C5.57 7.89492 5.056 7.03492 4.507 7.03492C4.389 7.03492 3.97 7.28792 3.253 7.78892L2.5 6.81892C3.28316 6.13107 4.06119 5.43738 4.834 4.73792C5.888 3.82792 6.679 3.34992 7.207 3.30092C8.45 3.17792 9.217 4.02892 9.505 5.85392C9.815 7.82192 10.031 9.04392 10.151 9.51992C10.511 11.1509 10.907 11.9659 11.337 11.9649C11.671 11.9649 12.173 11.4349 12.845 10.3779C13.516 9.31992 13.875 8.51492 13.922 7.96292C14.018 7.04992 13.659 6.59292 12.845 6.59292C12.4364 6.59891 12.0333 6.6877 11.66 6.85392C12.449 4.28092 13.951 3.02892 16.168 3.09792C17.812 3.14792 18.587 4.21592 18.492 6.29892Z" fill="#917B4C"/>
</svg>
