<svg width="26" height="26" viewBox="0 0 26 26" fill="none" xmlns="http://www.w3.org/2000/svg">
<path d="M21.6831 4.71373H20.8514V4.25897C20.8514 3.80925 20.6114 3.39366 20.2218 3.16871C19.8323 2.94376 19.3525 2.94376 18.963 3.16871C18.5733 3.39366 18.3334 3.80925 18.3334 4.25897V4.71373H15.3498C15.1365 4.71652 14.965 4.89028 14.965 5.10373C14.965 5.31702 15.1365 5.49077 15.3498 5.49373H18.3334V7.02779C18.3334 7.13121 18.3745 7.23045 18.4476 7.30358C18.5208 7.37688 18.62 7.41779 18.7234 7.41779H19.5926C19.8057 7.41466 19.9768 7.2409 19.9768 7.02779C19.9768 6.81469 19.8057 6.64093 19.5926 6.63779H19.1134V5.49373C19.1185 5.49617 21.6831 5.49373 21.6831 5.49373C22.0487 5.4946 22.3988 5.64051 22.657 5.89941C22.9151 6.15813 23.0599 6.50879 23.0599 6.8744V8.46939H19.5031C19.2877 8.46939 19.1131 8.64402 19.1131 8.85939C19.1131 9.07476 19.2877 9.24939 19.5031 9.24939H23.0599V20.0562C23.0594 20.4213 22.9142 20.7712 22.6562 21.0293C22.3981 21.2873 22.0482 21.4325 21.6831 21.433H4.1567C3.7916 21.4325 3.44164 21.2873 3.18362 21.0293C2.92559 20.7712 2.78038 20.4213 2.77986 20.0562V9.24939H17.9431C18.1562 9.24626 18.3273 9.0725 18.3273 8.85939C18.3273 8.64611 18.1562 8.47253 17.9431 8.46939H2.77986V6.8744C2.77986 6.50878 2.92472 6.15814 3.18275 5.89941C3.44095 5.64051 3.79106 5.49461 4.15672 5.49373H4.9886V7.02779H4.98843C4.98843 7.13121 5.02952 7.23045 5.10264 7.30358C5.17577 7.37688 5.27501 7.41797 5.37843 7.41779H6.24722C6.4605 7.41501 6.63199 7.24125 6.63199 7.02779C6.63199 6.81451 6.46049 6.64075 6.24722 6.63779H5.76843V5.49373C6.6402 5.4946 10.7029 5.49304 11.6612 5.49373V7.02779C11.6612 7.13121 11.7023 7.23045 11.7754 7.30358C11.8486 7.37688 11.9478 7.41779 12.0512 7.41779H12.92C13.1333 7.41483 13.3046 7.24108 13.3046 7.02779C13.3046 6.81451 13.1333 6.64075 12.92 6.63779H12.4412V5.49373H13.783C13.8885 5.49565 13.9904 5.45456 14.0651 5.38004C14.1396 5.30535 14.1807 5.2035 14.1788 5.09799V4.25898C14.1748 3.81206 13.934 3.40062 13.5461 3.1783C13.1584 2.95596 12.6816 2.95596 12.2939 3.1783C11.906 3.40063 11.6652 3.81206 11.6612 4.25898V4.71374H7.50649V4.25898C7.50231 3.81206 7.26135 3.40098 6.87362 3.17865C6.48588 2.95649 6.00916 2.95649 5.62143 3.17865C5.23369 3.40099 4.99288 3.81206 4.98856 4.25898V4.71374H4.15686C3.58456 4.71496 3.03597 4.94304 2.63167 5.34799C2.22722 5.75313 2.00018 6.30191 2 6.87438V20.0564C2.00052 20.6283 2.22808 21.1764 2.63238 21.5809C3.03666 21.9851 3.58492 22.2127 4.15686 22.2132H21.6832C22.2552 22.2127 22.8034 21.9852 23.2077 21.5809C23.612 21.1764 23.8396 20.6283 23.8401 20.0564V6.87438C23.8399 6.30191 23.6129 5.75314 23.2084 5.34799C22.8041 4.94302 22.2555 4.71476 21.6832 4.71374L21.6831 4.71373ZM20.0712 4.71373H19.1134V4.25897C19.1134 3.9945 19.3279 3.78001 19.5924 3.78001C19.8569 3.78001 20.0714 3.99451 20.0714 4.25897L20.0712 4.71373ZM12.441 4.25897C12.4448 3.99729 12.6581 3.78714 12.9198 3.78714C13.1815 3.78714 13.3947 3.99728 13.3986 4.25897V4.71373H12.441V4.25897ZM5.7682 4.25897C5.77221 3.99729 5.98549 3.78714 6.24717 3.78714C6.50902 3.78714 6.7223 3.99728 6.72613 4.25897V4.71373H5.7682V4.25897Z" fill="white"/>
<path d="M15.5124 10.1934C15.0037 10.1977 14.5353 10.4718 14.2821 10.9131C14.029 11.3546 14.029 11.8971 14.2821 12.3387C14.5353 12.78 15.0037 13.0541 15.5124 13.0584C16.0213 13.0541 16.4897 12.78 16.7428 12.3385C16.996 11.8971 16.996 11.3546 16.7428 10.9131C16.4897 10.4717 16.0213 10.1977 15.5124 10.1934ZM15.5124 12.2785C15.2815 12.2752 15.0695 12.1501 14.9549 11.9496C14.8405 11.749 14.8405 11.5028 14.9551 11.3023C15.0695 11.1017 15.2815 10.9767 15.5124 10.9734C15.7434 10.9767 15.9555 11.1017 16.0699 11.3023C16.1845 11.5028 16.1845 11.749 16.0699 11.9496C15.9553 12.1501 15.7435 12.2752 15.5124 12.2785Z" fill="white"/>
<path d="M20.6976 13.0584C21.2063 13.0539 21.6745 12.7798 21.9275 12.3385C22.1805 11.8971 22.1805 11.3546 21.9275 10.9132C21.6745 10.4719 21.2063 10.1978 20.6976 10.1933C20.1889 10.1978 19.7207 10.4719 19.4677 10.9132C19.2145 11.3546 19.2145 11.8971 19.4677 12.3385C19.7207 12.7798 20.1889 13.0539 20.6976 13.0584ZM20.6976 10.9733C20.9285 10.9766 21.1404 11.1018 21.2547 11.3024C21.3691 11.5028 21.3691 11.749 21.2547 11.9494C21.1402 12.1499 20.9285 12.2749 20.6976 12.2784C20.4667 12.2749 20.2548 12.1499 20.1405 11.9494C20.0261 11.7488 20.0261 11.5027 20.1405 11.3024C20.2548 11.1018 20.4667 10.9766 20.6976 10.9733Z" fill="white"/>
<path d="M5.14212 13.9088C4.63338 13.9135 4.16538 14.1876 3.91239 14.6289C3.65941 15.0701 3.65941 15.6126 3.91239 16.054C4.16537 16.4952 4.63356 16.7692 5.14212 16.7739C5.65085 16.7692 6.11885 16.4952 6.37184 16.0538C6.62499 15.6126 6.62482 15.0701 6.37184 14.6287C6.11886 14.1875 5.65085 13.9133 5.14212 13.9088ZM5.14212 15.9939C4.91125 15.9904 4.69936 15.8654 4.58497 15.6649C4.47058 15.4643 4.47058 15.2182 4.58497 15.0179C4.69953 14.8173 4.91125 14.6921 5.14212 14.6888C5.37298 14.6921 5.58487 14.8173 5.69926 15.0179C5.81365 15.2183 5.81365 15.4645 5.69926 15.6649C5.58487 15.8654 5.37298 15.9906 5.14212 15.9939Z" fill="white"/>
<path d="M10.3278 13.9088C9.81905 13.9135 9.35105 14.1876 9.09807 14.6289C8.84492 15.0701 8.84492 15.6126 9.09807 16.054C9.35105 16.4952 9.81905 16.7692 10.3278 16.7739C10.8365 16.7692 11.3045 16.4952 11.5575 16.0538C11.8105 15.6126 11.8105 15.0701 11.5575 14.6287C11.3045 14.1875 10.8364 13.9133 10.3278 13.9088ZM10.3278 15.9939C10.0969 15.9904 9.88504 15.8654 9.77065 15.6649C9.65609 15.4643 9.65626 15.2182 9.77065 15.0179C9.88504 14.8173 10.0969 14.6921 10.3278 14.6888C10.5587 14.6921 10.7704 14.8173 10.8849 15.0179C10.9993 15.2183 10.9993 15.4645 10.8849 15.6649C10.7704 15.8654 10.5587 15.9906 10.3278 15.9939Z" fill="white"/>
<path d="M16.584 14.3911C16.4394 14.2355 16.1967 14.2241 16.0385 14.3657C15.8801 14.5072 15.8642 14.7496 16.0028 14.9107C16.1135 15.0366 16.1713 15.2004 16.1644 15.3679C16.1574 15.5354 16.0862 15.6938 15.9654 15.8101C15.8447 15.9264 15.6837 15.9917 15.516 15.9922C15.3483 15.9929 15.1869 15.9289 15.0652 15.8136C14.9435 15.6982 14.8711 15.5404 14.8628 15.3729C14.8546 15.2054 14.9112 15.0413 15.021 14.9145C15.1664 14.7557 15.1556 14.509 14.997 14.3635C14.4391 13.9609 14.0631 14.8862 14.0781 15.3411H14.0779C14.0784 15.8116 14.3098 16.2519 14.697 16.5191C15.0844 16.7862 15.5782 16.8461 16.0182 16.6795C16.4581 16.5127 16.7882 16.1404 16.9012 15.6838C17.014 15.2269 16.8955 14.7438 16.584 14.3912L16.584 14.3911Z" fill="white"/>
<path d="M20.6976 16.7739C21.2063 16.7694 21.6745 16.4953 21.9275 16.054C22.1805 15.6126 22.1805 15.0701 21.9275 14.6287C21.6745 14.1874 21.2063 13.9133 20.6976 13.9088C20.1889 13.9133 19.7207 14.1874 19.4677 14.6287C19.2145 15.0701 19.2145 15.6126 19.4677 16.054C19.7207 16.4954 20.1889 16.7694 20.6976 16.7739ZM20.6976 14.6888C20.9285 14.6921 21.1404 14.8173 21.2547 15.0179C21.3693 15.2183 21.3693 15.4645 21.2547 15.6649C21.1404 15.8654 20.9285 15.9906 20.6976 15.9939C20.4667 15.9906 20.2548 15.8654 20.1403 15.6649C20.0259 15.4645 20.0259 15.2183 20.1403 15.0177C20.2548 14.8173 20.4667 14.6921 20.6976 14.6888Z" fill="white"/>
<path d="M5.14294 18.4029C5.30451 18.4038 5.45999 18.4637 5.5803 18.5713C5.74274 18.7083 5.98492 18.6902 6.12509 18.5304C6.26525 18.3706 6.25149 18.1279 6.09445 17.9847C5.74206 17.6714 5.2582 17.5512 4.80032 17.6635C4.34244 17.7756 3.96879 18.1059 3.80147 18.5467C3.63398 18.9876 3.69405 19.4824 3.962 19.8705C4.22995 20.2584 4.67149 20.4898 5.14297 20.4893C5.59443 20.5039 6.51875 20.137 6.12407 19.5782L6.12424 19.5783C6.05547 19.5009 5.95867 19.4542 5.85543 19.4483C5.75201 19.4425 5.65067 19.4782 5.57372 19.5475C5.45498 19.6525 5.30159 19.7101 5.14298 19.7093C4.91159 19.7063 4.69918 19.5813 4.58428 19.3804C4.46937 19.1795 4.46937 18.9328 4.58428 18.732C4.69919 18.5311 4.91156 18.4059 5.14294 18.4029Z" fill="white"/>
<path d="M10.3274 17.6238C9.81826 17.628 9.3499 17.9021 9.0966 18.3436C8.84345 18.7851 8.84345 19.3278 9.0966 19.7692C9.34993 20.2107 9.81844 20.4847 10.3274 20.4889C10.8363 20.4847 11.3048 20.2107 11.5579 19.7692C11.8113 19.3278 11.8113 18.7849 11.5579 18.3436C11.3048 17.902 10.8363 17.628 10.3274 17.6238ZM10.3274 19.7089C10.0965 19.7056 9.8846 19.5805 9.77003 19.3799C9.65564 19.1795 9.65564 18.9333 9.77003 18.7329C9.88459 18.5323 10.0965 18.4071 10.3274 18.4038C10.5584 18.407 10.7705 18.5321 10.885 18.7327C10.9996 18.9333 10.9996 19.1794 10.885 19.38C10.7705 19.5808 10.5584 19.7058 10.3274 19.7089Z" fill="white"/>
<path d="M15.5122 17.6238C15.0031 17.6278 14.5346 17.9019 14.2813 18.3434C14.028 18.785 14.028 19.3279 14.2813 19.7694C14.5346 20.2109 15.0033 20.485 15.5122 20.489C16.0213 20.485 16.49 20.2109 16.7433 19.7694C16.9966 19.3278 16.9967 18.785 16.7433 18.3434C16.49 17.9019 16.0213 17.6279 15.5122 17.6238ZM15.5122 19.7089C15.2814 19.7056 15.0693 19.5806 14.9547 19.3801C14.8403 19.1795 14.8403 18.9333 14.9549 18.7327C15.0693 18.5322 15.2813 18.4072 15.5122 18.4039C15.7434 18.407 15.9557 18.532 16.0703 18.7326C16.185 18.9333 16.1848 19.1797 16.0703 19.3802C15.9555 19.5808 15.7435 19.706 15.5122 19.7089Z" fill="white"/>
<path d="M20.6976 20.4893C21.2063 20.4848 21.6745 20.2107 21.9275 19.7694C22.1805 19.328 22.1805 18.7855 21.9275 18.3441C21.6745 17.9028 21.2063 17.6287 20.6976 17.6242C20.1889 17.6287 19.7207 17.9028 19.4677 18.3441C19.2145 18.7855 19.2145 19.328 19.4677 19.7694C19.7207 20.2107 20.1889 20.4848 20.6976 20.4893ZM20.6976 18.4042C20.9285 18.4075 21.1404 18.5327 21.2547 18.7333C21.3693 18.9337 21.3693 19.1799 21.2547 19.3804C21.1404 19.5808 20.9285 19.706 20.6976 19.7093C20.4666 19.7062 20.2545 19.5812 20.1399 19.3804C20.0252 19.1799 20.0252 18.9337 20.1399 18.7331C20.2545 18.5324 20.4665 18.4073 20.6976 18.4042Z" fill="white"/>
</svg>
