<svg width="162" height="162" viewBox="0 0 162 162" fill="none" xmlns="http://www.w3.org/2000/svg">
<path d="M125.378 41.9852H121.176V39.6873C121.176 37.4148 119.963 35.3149 117.995 34.1782C116.026 33.0415 113.602 33.0415 111.634 34.1782C109.665 35.3148 108.453 37.4148 108.453 39.6873V41.9852H93.3763C92.2986 41.9992 91.432 42.8772 91.432 43.9558C91.432 45.0335 92.2986 45.9115 93.3763 45.9265H108.453V53.6781C108.453 54.2007 108.66 54.7021 109.03 55.0716C109.399 55.442 109.901 55.6487 110.423 55.6487H114.815C115.892 55.6329 116.757 54.7549 116.757 53.6781C116.757 52.6013 115.892 51.7232 114.815 51.7074H112.394V45.9265C112.42 45.9388 125.378 45.9265 125.378 45.9265C127.226 45.9309 128.995 46.6681 130.3 47.9763C131.604 49.2837 132.336 51.0555 132.336 52.903V60.9625H114.363C113.275 60.9625 112.392 61.8449 112.392 62.9331C112.392 64.0214 113.275 64.9038 114.363 64.9038H132.336V119.51C132.333 121.355 131.599 123.124 130.295 124.427C128.992 125.731 127.223 126.465 125.378 126.468H36.8178C34.973 126.465 33.2046 125.731 31.9008 124.427C30.597 123.124 29.8633 121.355 29.8607 119.51V64.9038H106.48C107.557 64.888 108.422 64.01 108.422 62.9331C108.422 61.8554 107.557 60.9783 106.48 60.9625H29.8607V52.903C29.8607 51.0555 30.5926 49.2837 31.8965 47.9763C33.2012 46.6681 34.9702 45.9309 36.8179 45.9265H41.0214V53.6781H41.0205C41.0205 54.2007 41.2282 54.7021 41.5977 55.0716C41.9672 55.442 42.4686 55.6496 42.9912 55.6487H47.3812C48.4589 55.6347 49.3255 54.7567 49.3255 53.6781C49.3255 52.6004 48.4589 51.7224 47.3812 51.7074H44.9619V45.9265C49.3669 45.9309 69.8959 45.923 74.7381 45.9265V53.6781C74.7381 54.2007 74.9457 54.7021 75.3152 55.0716C75.6847 55.442 76.1862 55.6487 76.7087 55.6487H81.0987C82.1764 55.6338 83.0421 54.7558 83.0421 53.6781C83.0421 52.6004 82.1764 51.7224 81.0987 51.7074H78.6794V45.9265H85.4596C85.9928 45.9362 86.5074 45.7285 86.8848 45.352C87.2614 44.9746 87.469 44.4599 87.4593 43.9268V39.6873C87.4391 37.429 86.2224 35.35 84.2623 34.2266C82.3031 33.1032 79.8942 33.1032 77.935 34.2266C75.9749 35.3501 74.7583 37.429 74.7381 39.6873V41.9852H53.7443V39.6873C53.7232 37.429 52.5056 35.3518 50.5464 34.2284C48.5872 33.1058 46.1783 33.1058 44.2191 34.2284C42.2599 35.3519 41.043 37.429 41.0212 39.6873V41.9852H36.8186C33.9268 41.9913 31.1548 43.1438 29.1118 45.1901C27.0682 47.2372 25.9209 50.0102 25.92 52.9029V119.511C25.9227 122.401 27.0725 125.171 29.1155 127.215C31.1583 129.257 33.9286 130.407 36.8186 130.41H125.379C128.269 130.407 131.04 129.257 133.082 127.215C135.125 125.171 136.275 122.401 136.278 119.511V52.9029C136.277 50.0102 135.13 47.2373 133.086 45.1901C131.043 43.1437 128.271 41.9904 125.379 41.9852L125.378 41.9852ZM117.234 41.9852H112.394V39.6873C112.394 38.3509 113.478 37.2671 114.814 37.2671C116.151 37.2671 117.234 38.3509 117.234 39.6873L117.234 41.9852ZM78.6783 39.6873C78.6976 38.365 79.7753 37.3031 81.0976 37.3031C82.4198 37.3031 83.4975 38.365 83.5169 39.6873V41.9852H78.6783V39.6873ZM44.9607 39.6873C44.981 38.365 46.0587 37.3031 47.3809 37.3031C48.7041 37.3031 49.7818 38.365 49.8011 39.6873V41.9852H44.9607V39.6873Z" fill="white"/>
<path d="M94.1967 69.6736C91.6261 69.6956 89.2595 71.0803 87.9803 73.3104C86.7011 75.5415 86.7011 78.2828 87.9803 80.5138C89.2594 82.744 91.6261 84.1288 94.1967 84.1507C96.7683 84.1287 99.1349 82.7439 100.414 80.5129C101.693 78.2827 101.693 75.5414 100.414 73.3104C99.1347 71.0802 96.7681 69.6954 94.1967 69.6736ZM94.1967 80.2096C93.0302 80.1929 91.9586 79.5612 91.3797 78.5477C90.8017 77.5342 90.8017 76.2903 91.3806 75.2769C91.9586 74.2634 93.0301 73.6317 94.1967 73.615C95.3642 73.6317 96.4357 74.2634 97.0138 75.2769C97.5926 76.2903 97.5926 77.5342 97.0138 78.5477C96.4349 79.5612 95.3642 80.1929 94.1967 80.2096Z" fill="white"/>
<path d="M120.399 84.1506C122.969 84.1278 125.335 82.743 126.613 80.5129C127.892 78.2827 127.892 75.5414 126.613 73.3111C125.335 71.0809 122.969 69.6961 120.399 69.6733C117.828 69.6962 115.462 71.081 114.184 73.3111C112.905 75.5413 112.905 78.2826 114.184 80.5129C115.462 82.7431 117.828 84.1279 120.399 84.1506ZM120.399 73.6147C121.565 73.6314 122.636 74.2639 123.214 75.2774C123.792 76.29 123.792 77.5341 123.214 78.5467C122.635 79.5602 121.565 80.1918 120.399 80.2094C119.232 80.1918 118.162 79.5602 117.584 78.5467C117.006 77.5332 117.006 76.29 117.584 75.2774C118.162 74.2639 119.232 73.6314 120.399 73.6147Z" fill="white"/>
<path d="M41.7973 88.4479C39.2266 88.4716 36.8618 89.8564 35.5835 92.0865C34.3052 94.3158 34.3052 97.0571 35.5835 99.2874C36.8618 101.517 39.2275 102.902 41.7973 102.925C44.3679 102.901 46.7327 101.517 48.0111 99.2865C49.2902 97.0572 49.2894 94.316 48.0111 92.0856C46.7328 89.8563 44.3679 88.4706 41.7973 88.4479ZM41.7973 98.9839C40.6307 98.9663 39.56 98.3346 38.982 97.3211C38.404 96.3076 38.404 95.0644 38.982 94.0518C39.5609 93.0384 40.6307 92.4058 41.7973 92.3891C42.9638 92.4058 44.0345 93.0384 44.6125 94.0518C45.1905 95.0644 45.1905 96.3085 44.6125 97.3211C44.0345 98.3346 42.9638 98.9671 41.7973 98.9839Z" fill="white"/>
<path d="M67.9993 88.4479C65.4287 88.4716 63.0639 89.8564 61.7856 92.0865C60.5064 94.3158 60.5064 97.0571 61.7856 99.2874C63.0639 101.517 65.4287 102.902 67.9993 102.925C70.57 102.901 72.9348 101.517 74.2131 99.2865C75.4914 97.0572 75.4914 94.316 74.2131 92.0856C72.9348 89.8563 70.5691 88.4706 67.9993 88.4479ZM67.9993 98.9839C66.8328 98.9663 65.7621 98.3346 65.1841 97.3211C64.6052 96.3076 64.6061 95.0644 65.1841 94.0518C65.7621 93.0384 66.8328 92.4058 67.9993 92.3891C69.1659 92.4058 70.2357 93.0384 70.8146 94.0518C71.3926 95.0644 71.3926 96.3085 70.8146 97.3211C70.2357 98.3346 69.1659 98.9671 67.9993 98.9839Z" fill="white"/>
<path d="M99.6133 90.8848C98.883 90.0983 97.6567 90.0411 96.857 90.7564C96.0564 91.4716 95.9764 92.6963 96.6767 93.5101C97.2362 94.1462 97.5283 94.9741 97.4931 95.8204C97.4579 96.6668 97.0981 97.4674 96.4875 98.055C95.8779 98.6427 95.0641 98.9726 94.2169 98.9753C93.3697 98.9788 92.5541 98.655 91.9392 98.0726C91.3243 97.4894 90.9583 96.6923 90.9161 95.846C90.8747 94.9996 91.1606 94.17 91.7158 93.5296C92.4504 92.7272 92.3958 91.4806 91.5944 90.7452C88.7755 88.7112 86.8754 93.3863 86.951 95.6852H86.9502C86.9528 98.0623 88.122 100.287 90.0787 101.638C92.0361 102.987 94.5313 103.29 96.7544 102.448C98.9775 101.605 100.645 99.7242 101.216 97.4166C101.786 95.1081 101.187 92.6667 99.6135 90.8852L99.6133 90.8848Z" fill="white"/>
<path d="M120.399 102.925C122.969 102.902 125.335 101.517 126.613 99.2873C127.892 97.0571 127.892 94.3158 126.613 92.0855C125.335 89.8553 122.969 88.4705 120.399 88.4478C117.828 88.4706 115.462 89.8554 114.184 92.0855C112.905 94.3157 112.905 97.057 114.184 99.2873C115.462 101.518 117.828 102.902 120.399 102.925ZM120.399 92.3891C121.565 92.4058 122.636 93.0383 123.214 94.0518C123.793 95.0644 123.793 96.3085 123.214 97.3211C122.636 98.3346 121.565 98.9671 120.399 98.9838C119.232 98.9671 118.162 98.3346 117.583 97.3211C117.005 96.3085 117.005 95.0644 117.583 94.0509C118.162 93.0383 119.232 92.4058 120.399 92.3891Z" fill="white"/>
<path d="M41.8018 111.157C42.6183 111.161 43.4039 111.464 44.0118 112.007C44.8326 112.7 46.0564 112.608 46.7646 111.801C47.4728 110.993 47.4033 109.767 46.6098 109.043C44.8292 107.46 42.3843 106.853 40.0706 107.42C37.7569 107.987 35.8689 109.656 35.0234 111.883C34.1771 114.111 34.4806 116.611 35.8346 118.572C37.1885 120.532 39.4196 121.701 41.802 121.699C44.0832 121.773 48.7538 119.919 46.7595 117.095L46.7604 117.096C46.4129 116.704 45.9237 116.469 45.402 116.439C44.8795 116.41 44.3674 116.59 43.9786 116.94C43.3786 117.471 42.6035 117.762 41.802 117.757C40.6328 117.743 39.5595 117.111 38.9789 116.096C38.3983 115.08 38.3983 113.834 38.9789 112.819C39.5596 111.804 40.6327 111.172 41.8018 111.157Z" fill="white"/>
<path d="M67.9993 107.22C65.4268 107.241 63.0602 108.626 61.7803 110.857C60.5011 113.088 60.5011 115.83 61.7803 118.06C63.0604 120.291 65.4277 121.676 67.9993 121.697C70.5708 121.676 72.9383 120.291 74.2173 118.06C75.4974 115.83 75.4974 113.087 74.2173 110.857C72.9382 108.626 70.5708 107.241 67.9993 107.22ZM67.9993 117.756C66.8327 117.739 65.762 117.107 65.1831 116.093C64.6051 115.08 64.6051 113.836 65.1831 112.824C65.762 111.81 66.8327 111.178 67.9993 111.161C69.1667 111.177 70.2383 111.809 70.8172 112.823C71.3961 113.836 71.3961 115.08 70.8172 116.094C70.2383 117.108 69.1668 117.74 67.9993 117.756Z" fill="white"/>
<path d="M94.1967 107.22C91.6243 107.24 89.2568 108.625 87.9768 110.856C86.6969 113.087 86.6968 115.83 87.9768 118.061C89.2569 120.292 91.6252 121.677 94.1967 121.697C96.7692 121.677 99.1376 120.292 100.417 118.061C101.697 115.83 101.698 113.087 100.417 110.856C99.1374 108.625 96.7692 107.24 94.1967 107.22ZM94.1967 117.756C93.0301 117.739 91.9586 117.107 91.3797 116.094C90.8017 115.08 90.8017 113.837 91.3806 112.823C91.9586 111.81 93.0301 111.178 94.1967 111.161C95.365 111.177 96.4374 111.809 97.0164 112.822C97.5962 113.837 97.5953 115.081 97.0164 116.095C96.4367 117.108 95.3651 117.741 94.1967 117.756Z" fill="white"/>
<path d="M120.399 121.699C122.969 121.676 125.335 120.291 126.613 118.061C127.892 115.831 127.892 113.09 126.613 110.86C125.335 108.629 122.969 107.245 120.399 107.222C117.828 107.245 115.462 108.629 114.184 110.86C112.905 113.09 112.905 115.831 114.184 118.061C115.462 120.292 117.828 121.676 120.399 121.699ZM120.399 111.163C121.565 111.18 122.636 111.812 123.214 112.826C123.793 113.838 123.793 115.083 123.214 116.096C122.636 117.109 121.565 117.741 120.399 117.758C119.231 117.742 118.16 117.11 117.581 116.096C117.001 115.083 117.001 113.839 117.581 112.825C118.16 111.811 119.231 111.179 120.399 111.163Z" fill="white"/>
</svg>
