<svg width="21" height="21" viewBox="0 0 21 21" fill="none" xmlns="http://www.w3.org/2000/svg">
<path d="M10.5595 18.4284C9.42064 18.4284 8.34425 18.2095 7.33036 17.7717C6.31648 17.3339 5.43092 16.7367 4.6737 15.9801C3.91703 15.2234 3.31981 14.3381 2.88203 13.3242C2.44425 12.3103 2.22564 11.2339 2.2262 10.0951C2.2262 8.94227 2.44509 7.86227 2.88286 6.85505C3.32064 5.84783 3.91786 4.96616 4.67453 4.21005C5.4312 3.45283 6.3162 2.85561 7.32953 2.41839C8.34286 1.98116 9.41953 1.76227 10.5595 1.76172C11.7123 1.76172 12.7923 1.98061 13.7995 2.41839C14.8068 2.85616 15.6884 3.45339 16.4445 4.21005C17.2018 4.96672 17.799 5.84866 18.2362 6.85589C18.6734 7.86311 18.8923 8.94283 18.8929 10.0951V11.3034C18.8929 12.1228 18.6118 12.8209 18.0495 13.3976C17.4873 13.9742 16.7962 14.2623 15.9762 14.2617C15.4762 14.2617 15.0109 14.1506 14.5804 13.9284C14.1498 13.7062 13.7956 13.4145 13.5179 13.0534C13.1429 13.4284 12.7018 13.7237 12.1945 13.9392C11.6873 14.1548 11.1423 14.2623 10.5595 14.2617C9.40675 14.2617 8.42398 13.8553 7.6112 13.0426C6.79842 12.2298 6.39231 11.2473 6.39286 10.0951C6.39286 8.94227 6.79925 7.9595 7.61203 7.14672C8.42481 6.33394 9.40731 5.92783 10.5595 5.92839C11.7123 5.92839 12.6951 6.33477 13.5079 7.14755C14.3206 7.96033 14.7268 8.94283 14.7262 10.0951V11.3034C14.7262 11.7062 14.8512 12.022 15.1012 12.2509C15.3512 12.4798 15.6429 12.5945 15.9762 12.5951C16.3095 12.5951 16.6012 12.4803 16.8512 12.2509C17.1012 12.0214 17.2262 11.7056 17.2262 11.3034V10.0951C17.2262 8.27561 16.5698 6.7095 15.257 5.39672C13.9443 4.08394 12.3784 3.42783 10.5595 3.42839C8.74009 3.42839 7.17398 4.08477 5.8612 5.39755C4.54842 6.71033 3.89231 8.27616 3.89286 10.0951C3.89286 11.9145 4.54925 13.4806 5.86203 14.7934C7.17481 16.1062 8.74064 16.7623 10.5595 16.7617H13.8929C14.129 16.7617 14.327 16.8417 14.487 17.0017C14.647 17.1617 14.7268 17.3595 14.7262 17.5951C14.7262 17.8312 14.6462 18.0292 14.4862 18.1892C14.3262 18.3492 14.1284 18.4289 13.8929 18.4284H10.5595ZM10.5595 12.5951C11.254 12.5951 11.8443 12.352 12.3304 11.8659C12.8165 11.3798 13.0595 10.7895 13.0595 10.0951C13.0595 9.40061 12.8165 8.81033 12.3304 8.32422C11.8443 7.83811 11.254 7.59505 10.5595 7.59505C9.86509 7.59505 9.27481 7.83811 8.7887 8.32422C8.30259 8.81033 8.05953 9.40061 8.05953 10.0951C8.05953 10.7895 8.30259 11.3798 8.7887 11.8659C9.27481 12.352 9.86509 12.5951 10.5595 12.5951Z" fill="#917B4C"/>
</svg>
