<svg width="162" height="162" viewBox="0 0 162 162" fill="none" xmlns="http://www.w3.org/2000/svg">
<path d="M136.135 64.3765C134.805 60.3849 131.789 57.3693 129.128 54.797C127.709 53.5552 126.379 52.136 125.225 50.6282C124.161 49.0317 123.274 47.4351 122.476 45.6611C120.879 42.2905 119.017 38.4764 115.469 35.9042C112.098 33.5095 108.107 32.8885 104.293 32.3563C102.341 32.0902 100.39 31.7354 98.4386 31.2032C96.5759 30.4936 94.8018 29.6953 93.0278 28.7196C89.7459 26.8569 86.1979 24.9943 82.0292 24.9943H81.9405C77.6829 24.9943 73.869 26.9456 70.587 28.7196C68.9905 29.6953 67.2165 30.4049 65.4425 31.1144C63.5798 31.6466 61.7171 32.0014 59.7658 32.1788C56.0404 32.711 51.8715 33.2432 48.4123 35.7267C44.9532 38.2103 43.0904 41.9356 41.4938 45.3062C40.6955 47.0802 39.7198 48.7654 38.6554 50.3621C37.5023 51.7813 36.2607 53.1117 34.8415 54.3537C32.1805 56.9261 29.076 59.9416 27.6568 64.022C26.2376 68.1023 27.0359 72.3597 27.6568 76.085C28.0116 77.859 28.2777 79.7218 28.3664 81.5843C28.2777 83.5357 28.0116 85.3983 27.6568 87.3499C27.0359 90.9866 26.2376 95.1554 27.5681 99.1469C28.8986 103.138 31.9144 106.154 34.5752 108.726C35.9944 109.968 37.3247 111.387 38.4779 112.895C39.5423 114.492 40.4293 116.088 41.2275 117.862C42.8241 121.233 44.6867 125.047 48.2346 127.619C51.6052 130.014 55.5965 130.635 59.4107 131.167C61.362 131.433 63.3134 131.788 65.2648 132.32C67.1275 133.03 68.9015 133.828 70.6755 134.804C74.1347 136.666 77.6826 138.529 81.763 138.529H81.8517C86.1092 138.529 89.9232 136.578 93.2051 134.804C94.8017 133.828 96.5757 133.118 98.3497 132.409C100.212 131.877 102.075 131.522 104.026 131.345C107.752 130.812 111.921 130.28 115.38 127.797C118.839 125.313 120.702 121.588 122.298 118.217C123.097 116.443 124.072 114.758 125.137 113.161C126.29 111.742 127.532 110.412 128.951 109.17C131.7 106.597 134.805 103.582 136.135 99.5014C137.466 95.4211 136.756 91.1637 136.135 87.4384C135.781 85.6644 135.514 83.8016 135.426 81.939C135.514 79.9877 135.781 78.1251 136.135 76.1735C136.668 72.5367 137.466 68.368 136.135 64.3765ZM132.676 98.3476C130.902 103.581 125.314 106.863 122.21 111.031C119.017 115.466 117.597 121.764 113.251 124.868C108.816 128.062 102.43 127.352 97.1964 129.037C92.1404 130.634 87.2621 134.98 81.7628 134.98C76.4409 134.98 71.6511 130.634 66.3292 128.948C61.0072 127.263 54.6209 127.795 50.3634 124.691C45.9284 121.498 44.5979 115.111 41.4935 110.765C38.3003 106.419 32.7124 103.137 31.027 97.9924C29.3417 92.9365 31.914 87.0826 31.914 81.583C31.914 76.3499 29.253 70.407 31.027 65.1736C32.801 59.9403 38.3889 56.6585 41.4935 52.4898C44.6867 48.0548 46.1058 41.7571 50.4522 38.6528C54.8871 35.4596 61.2734 36.1692 66.5068 34.484C71.6513 32.8874 76.5299 28.5413 82.029 28.5413C87.3509 28.5413 92.1407 32.8876 97.4626 34.5728C102.785 36.3468 109.171 35.7259 113.428 38.8304C117.863 42.0235 119.194 48.4098 122.298 52.7562C125.491 57.1025 131.079 60.3843 132.765 65.5288C134.45 70.5848 131.789 76.5275 131.789 81.9382C131.7 87.1714 134.362 93.1143 132.676 98.3476Z" fill="white"/>
<path d="M85.3103 100.3C86.286 100.566 87.2617 99.9452 87.4391 98.9696L96.3978 63.49C96.6639 62.5143 96.043 61.5386 95.0673 61.3612C94.0916 61.0951 93.1159 61.716 92.9385 62.6917L83.9798 98.1713C83.8024 99.147 84.3346 100.123 85.3103 100.3Z" fill="white"/>
<path d="M88.8583 39.8068C88.2374 35.9041 84.512 33.3317 80.698 33.9527C76.8841 34.5737 74.2229 38.2991 74.8439 42.113C75.4648 46.0158 79.1902 48.5881 83.0042 47.9671C85.5766 47.5236 87.6165 45.7496 88.5035 43.3548C109.702 47.1687 123.894 67.4809 120.08 88.6794C116.267 109.878 95.9542 124.07 74.7557 120.256C56.1289 116.886 42.6457 100.742 42.5585 81.8491C42.5585 80.8734 41.7602 80.0751 40.7845 80.0751C39.8089 80.0751 39.0106 80.8734 39.0106 81.8491C38.9219 105.444 57.9921 124.69 81.586 124.869C105.181 124.957 124.427 105.887 124.605 82.2931C124.694 61.1838 109.615 43.1764 88.8603 39.8068H88.8583ZM81.8512 44.508C79.8998 44.508 78.3032 42.9114 78.3032 40.96C78.3032 39.0086 79.8998 37.4121 81.8512 37.4121C83.8026 37.4121 85.3992 39.0086 85.3992 40.96C85.3992 42.9114 83.8026 44.508 81.8512 44.508Z" fill="white"/>
</svg>
