<svg width="20" height="20" viewBox="0 0 20 20" fill="none" xmlns="http://www.w3.org/2000/svg">
<path d="M5.23133 4.65146C5.23112 5.064 5.06509 5.45956 4.76976 5.75112C4.47444 6.04268 4.07401 6.20636 3.65656 6.20615C3.23912 6.20595 2.83886 6.04187 2.54382 5.75002C2.24879 5.45816 2.08317 5.06244 2.08337 4.64991C2.08358 4.23737 2.24961 3.84181 2.54494 3.55025C2.84026 3.25869 3.24069 3.09501 3.65814 3.09522C4.07558 3.09542 4.47585 3.2595 4.77088 3.55135C5.06591 3.8432 5.23154 4.23893 5.23133 4.65146ZM5.27855 7.35798H2.13059V17.0952H5.27855V7.35798ZM10.2523 7.35798H7.1201V17.0952H10.2208V11.9855C10.2208 9.13899 13.9748 8.87456 13.9748 11.9855V17.0952H17.0834V10.9278C17.0834 6.12916 11.5272 6.30804 10.2208 8.66457L10.2523 7.35798Z" fill="#917B4C"/>
</svg>
