<svg width="20" height="20" viewBox="0 0 20 20" fill="none" xmlns="http://www.w3.org/2000/svg">
<path d="M10.1152 3.76953C12.1787 3.78937 13.8454 5.27747 14.0835 7.34096C14.1827 8.23382 13.9843 9.04731 13.5478 9.80128C12.5954 11.4481 11.6232 13.0949 10.651 14.7418C10.5517 14.9203 10.4327 15.1187 10.3137 15.2775C10.1549 15.4957 10.016 15.4759 9.87714 15.2576C9.38111 14.4243 8.88508 13.5711 8.38905 12.7179C7.79381 11.706 7.17873 10.6941 6.60333 9.68223C6.16683 8.90842 6.02794 8.05525 6.16683 7.18223C6.46445 5.39652 7.73429 4.12668 9.53985 3.80922C9.71842 3.78937 9.91683 3.78937 10.1152 3.76953ZM10.2144 5.55525C8.80572 5.55525 7.97238 6.56715 8.01206 7.69811C8.05175 8.98779 8.9446 9.82112 10.3732 9.7616C11.3851 9.72191 12.2978 8.80922 12.2581 7.5989C12.2383 6.52747 11.2264 5.51556 10.2144 5.55525Z" fill="#917B4C"/>
</svg>
