<svg width="68" height="69" viewBox="0 0 68 69" fill="none" xmlns="http://www.w3.org/2000/svg">
<path fill-rule="evenodd" clip-rule="evenodd" d="M15 22.8821C15.6152 23.3914 16.177 23.8565 16.7397 24.3213C17.9677 25.3354 19.1982 26.3473 20.4224 27.3657C20.5605 27.4805 20.6781 27.5108 20.8577 27.4603C29.2557 25.0968 37.6549 22.7391 46.0545 20.3805C47.5718 19.9544 49.0901 19.5292 50.6081 19.1044C50.65 19.0923 50.6931 19.0842 50.7481 19.1065C42.6147 23.3079 34.4815 27.5092 26.3198 31.7251C28.905 35.2794 31.4751 38.8139 34.0698 42.3819C40.1093 34.4232 46.1284 26.4908 52.1925 18.5C39.7731 19.9634 27.4226 21.4187 15 22.8821Z" fill="#917B4C"/>
<path fill-rule="evenodd" clip-rule="evenodd" d="M23.0119 36.7237C23.1874 36.206 23.3635 35.6889 23.5378 35.1709C24.0263 33.7187 24.516 32.2668 24.9985 30.8124C25.0511 30.6542 25.1328 30.5617 25.2885 30.4908C30.5754 28.0799 35.8597 25.6638 41.1446 23.2489C42.7306 22.5241 44.3168 21.7994 45.903 21.0747C46.0009 21.0301 46.0968 20.9822 46.1789 20.8955C37.9844 23.5289 29.7893 26.1626 21.5659 28.8053C22.0299 31.4529 22.4913 34.0888 22.9531 36.7246C22.9726 36.7243 22.9924 36.724 23.0119 36.7237Z" fill="#917B4C"/>
<path fill-rule="evenodd" clip-rule="evenodd" d="M21.0145 47.8748C20.6194 47.4419 20.241 46.9786 20.0737 46.4191C19.8998 45.8361 19.5764 45.3546 19.2512 44.8561C17.4444 42.089 17.9924 38.7096 20.571 36.6205C20.682 36.5308 20.8016 36.4515 20.9299 36.3584C21.0504 36.5289 21.1548 36.6762 21.2693 36.8387C20.4291 37.4371 19.7695 38.1631 19.3317 39.0704C18.8926 39.9802 18.7331 40.9407 18.8291 41.9399C18.9228 42.9146 19.4883 44.3604 19.8686 44.6339C20.2222 43.6289 20.6783 42.9815 21.4055 42.4632C21.8616 42.1382 22.3667 41.9427 22.9354 41.9309C24.8211 41.8913 26.464 43.8151 26.1022 45.6365C25.8402 46.9566 24.5937 47.928 23.2591 47.8342C22.558 47.785 21.9547 47.4747 21.3872 47.0891C21.257 47.0003 21.1302 46.9065 21.0019 46.8152C22.1302 48.4553 23.7944 49.4452 25.4914 50.4057C25.3917 50.5852 25.3071 50.7371 25.208 50.9151C23.6557 50.0706 22.1912 49.1642 21.0145 47.8748ZM23.0279 42.5325C22.7929 42.5325 22.5378 42.5613 22.3268 42.6538C21.2362 43.1303 20.5663 43.9367 20.414 45.1238C20.3904 45.3076 20.4345 45.4589 20.5719 45.6003C21.1211 46.1651 21.7052 46.6831 22.4359 47.0142C23.835 47.6486 25.2561 46.9183 25.5298 45.4252C25.5477 45.3283 25.5496 45.2287 25.559 45.1306C25.5518 43.8021 24.3276 42.5334 23.0279 42.5325Z" fill="#917B4C"/>
<path fill-rule="evenodd" clip-rule="evenodd" d="M27.6372 34.9951C26.9811 34.1689 26.3413 33.3634 25.6754 32.5254C24.8784 34.3007 24.1002 36.0342 23.322 37.7674C23.3362 37.7789 23.3506 37.7906 23.3648 37.8021C24.7809 36.8716 26.1969 35.9411 27.6372 34.9951Z" fill="#917B4C"/>
</svg>
