<svg width="20" height="20" viewBox="0 0 20 20" fill="none" xmlns="http://www.w3.org/2000/svg">
<path d="M15.8928 10.0479C15.7151 10.0479 15.5566 9.98385 15.4175 9.85585C15.2784 9.72785 15.1982 9.56963 15.1768 9.38119C15.0324 8.34785 14.5962 7.46719 13.8682 6.73919C13.1402 6.01119 12.2595 5.57518 11.2262 5.43118C11.0373 5.40896 10.8788 5.33118 10.7508 5.19785C10.6228 5.06452 10.5591 4.90341 10.5595 4.71452C10.5595 4.52563 10.6262 4.36718 10.7595 4.23918C10.8928 4.11118 11.0484 4.05852 11.2262 4.08118C12.6262 4.23674 13.8206 4.80896 14.8095 5.79785C15.7984 6.78674 16.3706 7.98119 16.5262 9.38119C16.5484 9.55896 16.4955 9.71452 16.3675 9.84785C16.2395 9.98118 16.0813 10.0479 15.8928 10.0479ZM13.1095 10.0479C12.9651 10.0479 12.8373 9.99785 12.7262 9.89785C12.6151 9.79785 12.5317 9.66452 12.4762 9.49785C12.3873 9.17563 12.2177 8.88941 11.9675 8.63919C11.7173 8.38896 11.4313 8.21963 11.1095 8.13119C10.9428 8.07563 10.8095 7.9923 10.7095 7.88119C10.6095 7.77007 10.5595 7.63674 10.5595 7.48118C10.5595 7.25896 10.6373 7.0783 10.7928 6.93918C10.9484 6.80007 11.1206 6.75296 11.3095 6.79785C11.9317 6.9423 12.468 7.23963 12.9182 7.68985C13.3684 8.14007 13.6655 8.67607 13.8095 9.29785C13.854 9.48674 13.804 9.65896 13.6595 9.81452C13.5151 9.97007 13.3317 10.0479 13.1095 10.0479ZM15.8595 16.0479C14.4262 16.0479 13.0288 15.7283 11.6675 15.0892C10.3062 14.4501 9.10062 13.6056 8.05084 12.5559C7.00107 11.5061 6.15662 10.3005 5.51751 8.93918C4.8784 7.57785 4.55907 6.18074 4.55951 4.74785C4.55951 4.54785 4.62618 4.38118 4.75951 4.24785C4.89284 4.11452 5.05951 4.04785 5.25951 4.04785H7.95951C8.11507 4.04785 8.25395 4.09785 8.37618 4.19785C8.4984 4.29785 8.57062 4.42563 8.59284 4.58118L9.02618 6.91452C9.0484 7.07007 9.04551 7.21185 9.01751 7.33985C8.98951 7.46785 8.92573 7.58163 8.82618 7.68118L7.22618 9.31452C7.69284 10.1145 8.27618 10.8645 8.97618 11.5645C9.67618 12.2645 10.4484 12.8701 11.2928 13.3812L12.8595 11.8145C12.9595 11.7145 13.0902 11.6396 13.2515 11.5899C13.4128 11.5401 13.5711 11.5261 13.7262 11.5479L16.0262 12.0145C16.1817 12.0479 16.3095 12.123 16.4095 12.2399C16.5095 12.3567 16.5595 12.4927 16.5595 12.6479V15.3479C16.5595 15.5479 16.4928 15.7145 16.3595 15.8479C16.2262 15.9812 16.0595 16.0479 15.8595 16.0479Z" fill="#917B4C"/>
</svg>
