<svg width="20" height="20" viewBox="0 0 20 20" fill="none" xmlns="http://www.w3.org/2000/svg">
<path d="M11.7794 8.07693C11.7942 8.09168 11.8237 8.12117 11.8237 8.15067C11.942 8.79954 12.3265 9.34519 12.637 9.90558C13.2581 10.9821 13.8939 12.0439 14.5446 13.1057C14.6333 13.2679 14.722 13.4449 14.9586 13.4449C14.9882 13.4449 15.0325 13.5186 15.0325 13.5629C15.0473 13.8283 15.0473 14.1085 15.0325 14.374C15.0325 14.4035 14.9586 14.4772 14.929 14.4772C14.7959 14.4919 14.6629 14.4772 14.5298 14.4772C10.8478 14.4772 7.16581 14.4772 3.48382 14.4624C3.11414 14.4624 2.72968 14.4624 2.34521 14.4624C2.34521 11.4983 2.34521 8.54884 2.34521 5.55518C2.46351 5.64366 2.56702 5.71739 2.65574 5.79113C4.56328 7.26584 6.47081 8.74055 8.37835 10.2153C8.70366 10.466 8.70366 10.4807 9.04377 10.2153C9.75355 9.65488 10.4781 9.09449 11.1879 8.53409C11.3801 8.38662 11.5871 8.23915 11.7794 8.07693Z" fill="#917B4C"/>
<path d="M2.40451 4.57129C5.81402 4.57129 9.22352 4.57129 12.6627 4.57129C12.6479 4.61451 12.633 4.64333 12.6182 4.65774C12.0401 5.27729 11.7584 6.01211 11.7584 6.84778C11.7584 7.00627 11.7139 7.10713 11.5805 7.20798C10.6466 7.88517 9.72754 8.57676 8.80845 9.26836C8.68986 9.35481 8.63057 9.35481 8.51197 9.26836C7.4743 8.47591 6.43662 7.69786 5.39895 6.90541C4.42057 6.17059 3.44219 5.42137 2.46381 4.68655C2.43416 4.65774 2.38969 4.65774 2.34521 4.64333C2.37486 4.61451 2.38969 4.60011 2.40451 4.57129Z" fill="#917B4C"/>
<path d="M15.7814 4.57129C17.5352 4.5861 18.9353 6.23029 18.67 7.96335C18.611 8.37809 18.4784 8.76322 18.2721 9.11872C17.5499 10.3482 16.8131 11.5776 16.0909 12.807C16.0172 12.9255 15.9583 13.044 15.8846 13.1625C15.7667 13.3403 15.6635 13.3551 15.5456 13.1625C15.3541 12.8515 15.1772 12.5256 14.9856 12.2145C14.3666 11.1628 13.7477 10.1112 13.1434 9.04465C12.1413 7.26716 13.1434 5.0601 15.133 4.66016C15.3393 4.60091 15.5604 4.60091 15.7814 4.57129ZM15.7078 9.07428C16.5773 9.08909 17.2994 8.39291 17.3141 7.51897C17.3289 6.67466 16.6067 5.90441 15.7667 5.8896C14.8677 5.87479 14.1603 6.57097 14.1456 7.47453C14.1308 8.36328 14.794 9.05947 15.7078 9.07428Z" fill="#917B4C"/>
</svg>
