<svg width="21" height="20" viewBox="0 0 21 20" fill="none" xmlns="http://www.w3.org/2000/svg">
<path d="M18.7916 4.74227C18.1659 5.03051 17.4914 5.21992 16.7926 5.31051C17.5077 4.87404 18.0603 4.18227 18.3203 3.35051C17.6458 3.76227 16.8982 4.05051 16.11 4.21521C15.468 3.50698 14.566 3.09521 13.5421 3.09521C11.6324 3.09521 10.0722 4.67639 10.0722 6.62816C10.0722 6.90816 10.1047 7.17992 10.1616 7.43522C7.26868 7.28698 4.69268 5.87874 2.97805 3.7458C2.67738 4.26463 2.50673 4.87404 2.50673 5.51639C2.50673 6.74345 3.1162 7.83051 4.05883 8.44816C3.48187 8.44816 2.94555 8.28345 2.47423 8.03639V8.0611C2.47423 9.77404 3.6769 11.207 5.26964 11.5282C4.75828 11.67 4.22144 11.6897 3.70128 11.5858C3.92199 12.2878 4.35425 12.9021 4.93729 13.3423C5.52033 13.7825 6.22483 14.0265 6.95176 14.0399C5.71953 15.0285 4.1921 15.5629 2.6205 15.5552C2.34421 15.5552 2.06792 15.5387 1.79163 15.5058C3.3356 16.5105 5.17212 17.0952 7.13866 17.0952C13.5421 17.0952 17.0607 11.7093 17.0607 7.03992C17.0607 6.88345 17.0607 6.73521 17.0526 6.57874C17.7352 6.08463 18.3203 5.45874 18.7916 4.74227Z" fill="#917B4C"/>
</svg>
