<svg width="21" height="20" viewBox="0 0 21 20" fill="none" xmlns="http://www.w3.org/2000/svg">
<path d="M17.9447 5.27567C17.8732 5.00337 17.7362 4.75152 17.545 4.5409C17.3538 4.33028 17.1138 4.16692 16.845 4.06431C14.2434 3.08635 10.1027 3.09522 9.875 3.09522C9.64732 3.09522 5.50661 3.08635 2.905 4.06431C2.63616 4.16692 2.39624 4.33028 2.20504 4.5409C2.01383 4.75152 1.87682 5.00337 1.80531 5.27567C1.60875 6.01283 1.375 7.3601 1.375 9.59522C1.375 11.8303 1.60875 13.1776 1.80531 13.9148C1.87672 14.1872 2.01368 14.4392 2.20489 14.65C2.3961 14.8607 2.63607 15.0242 2.905 15.1269C5.39732 16.0627 9.29821 16.0952 9.82491 16.0952H9.92509C10.4518 16.0952 14.355 16.0627 16.845 15.1269C17.1139 15.0242 17.3539 14.8607 17.5451 14.65C17.7363 14.4392 17.8733 14.1872 17.9447 13.9148C18.1413 13.1761 18.375 11.8303 18.375 9.59522C18.375 7.3601 18.1413 6.01283 17.9447 5.27567ZM12.4721 9.84118L8.8292 12.2048C8.78347 12.2345 8.73031 12.2516 8.6754 12.2542C8.6205 12.2567 8.5659 12.2448 8.51743 12.2195C8.46897 12.1943 8.42846 12.1567 8.40023 12.1108C8.372 12.0649 8.35711 12.0124 8.35714 11.9589V7.23158C8.35711 7.17808 8.372 7.12557 8.40023 7.07966C8.42846 7.03375 8.46897 6.99617 8.51743 6.97091C8.5659 6.94566 8.6205 6.93369 8.6754 6.93628C8.73031 6.93887 8.78347 6.95592 8.8292 6.98561L12.4721 9.34925C12.5137 9.37622 12.5478 9.41279 12.5715 9.4557C12.5951 9.49861 12.6074 9.54654 12.6074 9.59522C12.6074 9.6439 12.5951 9.69182 12.5715 9.73473C12.5478 9.77765 12.5137 9.81421 12.4721 9.84118Z" fill="#917B4C"/>
</svg>
